# xmcd
#
# Track frame offsets: 
#        150
#        18947
#        37800
#        54382
#        72671
#        104347
#        124492
#        150238
#        168321
#        186725
#        201574
#        219074
#        233685
#        250255
#        268615
#        285154
#
# Disc length: 4039 seconds
#
# Revision: 0
# Processed by: cddbd v1.5.2PL0 Copyright (c) Steve Scherf et al.
# Submitted via: ExactAudioCopyFreeDBPlugin 1.0
#
DISCID=df0fc510
DTITLE=Grigory Leps - Vodopad
DYEAR=2009
DGENRE=Blues
TTITLE0=Vodopad
TTITLE1=Bessonnica
TTITLE2=Lodka
TTITLE3=Snegopad
TTITLE4=Chto Moget Chelovek
TTITLE5=Begi Po Nebu
TTITLE6=Svoi
TTITLE7=Slova
TTITLE8=Berega 
TTITLE9=Opozdala
TTITLE10=Krasivo
TTITLE11=Ya Tebya Ne Lublu
TTITLE12=Nadejdy
TTITLE13=Ya Tebe Ne Veru
TTITLE14=Ona Ne Tvoya
TTITLE15=Svoi S Lube
EXTD=
EXTT0=
EXTT1=
EXTT2=
EXTT3=
EXTT4=
EXTT5=
EXTT6=
EXTT7=
EXTT8=
EXTT9=
EXTT10=
EXTT11=
EXTT12=
EXTT13=
EXTT14=
EXTT15=
PLAYORDER=
